<?xml version="1.0" standalone="no"?>
<!DOCTYPE svg PUBLIC "-//W3C//DTD SVG 20010904//EN"
 "http://www.w3.org/TR/2001/REC-SVG-20010904/DTD/svg10.dtd">
<svg version="1.0" xmlns="http://www.w3.org/2000/svg"
 width="512.000000pt" height="512.000000pt" viewBox="0 0 512.000000 512.000000"
 preserveAspectRatio="xMidYMid meet">
<metadata>
Created by potrace 1.14, written by Peter Selinger 2001-2017
</metadata>
<g transform="translate(0.000000,512.000000) scale(0.100000,-0.100000)"
fill="#000000" stroke="none">
<path d="M2534 5078 c-22 -42 -35 -66 -136 -238 -115 -197 -318 -548 -332
-574 -6 -12 -18 -32 -27 -46 -20 -31 -156 -267 -344 -595 -53 -93 -106 -182
-116 -197 l-20 -28 43 -1 c55 0 1916 0 1942 0 18 1 18 2 3 19 -10 10 -17 22
-17 26 0 4 -8 20 -19 34 -10 15 -30 48 -44 74 -15 26 -208 362 -430 745 -379
655 -422 728 -455 789 -18 32 -28 30 -48 -8z"/>
<path d="M1680 4634 c-283 -163 -537 -308 -565 -323 -27 -15 -68 -39 -90 -53
-22 -14 -45 -27 -50 -29 -47 -18 -653 -375 -647 -380 8 -9 990 -419 1000 -419
4 0 41 60 82 132 41 72 87 152 102 177 15 25 35 60 44 76 25 44 603 1044 626
1083 11 17 18 32 16 31 -2 0 -235 -133 -518 -295z"/>
<path d="M2936 4900 c24 -39 87 -147 117 -200 11 -19 103 -179 205 -355 473
-817 435 -751 500 -865 14 -25 27 -46 28 -48 1 -2 33 11 71 28 37 18 102 48
143 67 41 19 98 45 125 58 28 12 149 69 270 125 121 56 250 115 288 132 37 17
67 34 67 37 0 5 -991 576 -1339 772 -120 68 -420 239 -456 260 l-39 24 20 -35z"/>
<path d="M4885 3700 c-76 -37 -297 -140 -300 -140 -2 0 -45 -20 -96 -44 -52
-24 -150 -69 -219 -101 -69 -31 -157 -72 -195 -90 -39 -18 -94 -44 -122 -57
l-52 -24 160 -254 c88 -140 171 -271 184 -290 12 -19 154 -244 315 -500 309
-491 359 -570 364 -570 2 0 3 470 3 1045 0 575 0 1045 -1 1044 0 0 -19 -9 -41
-19z"/>
<path d="M192 2645 c0 -644 4 -1013 10 -1007 9 9 83 125 206 322 78 124 337
535 367 580 41 63 200 314 210 333 6 10 58 94 118 186 59 93 107 173 107 178
0 7 -950 407 -998 419 -19 6 -19 -1 -20 -1011z"/>
<path d="M1565 3181 c-3 -2 6 -22 19 -45 13 -22 39 -70 59 -106 19 -36 46 -85
60 -110 87 -158 184 -334 214 -390 20 -36 44 -78 53 -95 10 -16 31 -55 47 -85
40 -74 239 -437 382 -695 64 -116 125 -227 136 -248 11 -20 22 -37 25 -37 5 0
19 24 87 150 17 30 106 192 198 360 172 313 257 468 305 555 73 133 305 555
327 595 65 114 82 150 75 151 -24 3 -1984 3 -1987 0z"/>
<path d="M1234 2865 c-71 -113 -140 -223 -154 -245 -22 -36 -272 -432 -440
-697 -255 -402 -351 -557 -353 -566 -3 -13 7 -14 215 -22 216 -8 300 -12 468
-19 119 -6 249 -11 480 -21 58 -3 166 -7 240 -11 74 -3 169 -7 210 -9 180 -7
397 -17 432 -20 21 -2 38 -1 38 1 0 6 -63 122 -194 357 -49 88 -219 398 -276
502 -15 28 -102 185 -192 350 -91 165 -185 336 -208 380 -24 44 -53 96 -65
115 -11 19 -29 52 -40 73 -11 20 -22 37 -26 37 -3 0 -64 -92 -135 -205z"/>
<path d="M3675 2943 c-39 -70 -88 -161 -111 -203 -22 -41 -77 -140 -121 -220
-44 -80 -97 -176 -117 -213 -20 -37 -46 -84 -58 -105 -11 -20 -34 -62 -50 -92
-17 -30 -40 -73 -53 -95 -23 -41 -60 -108 -123 -225 -19 -36 -63 -114 -97
-175 -34 -60 -84 -150 -110 -200 -27 -49 -57 -103 -67 -120 -10 -16 -18 -33
-18 -36 0 -4 21 -5 48 -4 26 2 121 6 212 10 91 4 201 8 244 11 44 2 140 6 215
9 75 3 179 7 231 10 52 2 154 7 225 10 179 7 354 15 455 20 179 9 387 18 423
19 20 0 37 2 37 5 0 2 -15 27 -32 55 -18 27 -37 58 -43 68 -5 10 -217 345
-470 744 -253 400 -467 738 -476 753 -45 76 -62 101 -68 101 -4 0 -38 -57 -76
-127z"/>
<path d="M510 1113 c8 -3 17 -9 20 -12 4 -5 791 -457 865 -497 11 -6 67 -38
125 -71 58 -33 121 -69 140 -80 19 -11 148 -84 285 -163 138 -79 270 -154 295
-168 25 -14 62 -36 82 -49 21 -12 41 -23 45 -23 5 0 19 -9 33 -20 57 -45 55
-64 53 467 -1 269 -2 500 -3 515 0 19 -5 27 -17 26 -18 -1 -275 10 -413 17
-41 2 -140 6 -220 10 -222 9 -354 15 -695 30 -452 20 -613 25 -595 18z"/>
<path d="M4457 1114 c-2 -2 -253 -13 -412 -19 -102 -4 -357 -15 -455 -20 -41
-2 -149 -7 -240 -10 -91 -4 -192 -8 -225 -10 -91 -5 -418 -18 -437 -17 -14 1
-18 -8 -19 -41 -5 -470 -2 -987 7 -987 6 0 64 31 130 68 65 38 139 80 164 94
369 209 1628 932 1635 939 6 6 -19 9 -69 7 -42 -2 -78 -4 -79 -4z"/>
</g>
</svg>
